# xmcd
#
# Track frame offsets:
#	150
#	10617
#	19178
#	29211
#	42096
#	51997
#	64453
#	73598
#	83703
#	94462
#
# Disc length: 1407 seconds
#
# Revision: 1
# Processed by: cddbd v1.5.2PL0 Copyright (c) Steve Scherf et al.
# Submitted via: audiograbber 1.83.01
#
DISCID=88057d0a
DTITLE=Slim Sandy - Rough and Ready
DYEAR=2006
DGENRE=Modern Country Boogie
TTITLE0=Bow Legged Daddio
TTITLE1=Cats Was A Jumpin'
TTITLE2=Couldn't Sleep Last Night
TTITLE3=Flathead Ford
TTITLE4=Slow Down Baby
TTITLE5=No Gasoline
TTITLE6=Mr Guitar
TTITLE7=Gettin' By Jus' The Same
TTITLE8=Three Alley Cats
TTITLE9=Party in Room 109
EXTD=
EXTT0=
EXTT1=
EXTT2=
EXTT3=
EXTT4=
EXTT5=
EXTT6=
EXTT7=
EXTT8=
EXTT9=
PLAYORDER=
